<?xml version="1.0" standalone="no"?>
<!DOCTYPE svg PUBLIC "-//W3C//DTD SVG 20010904//EN"
 "http://www.w3.org/TR/2001/REC-SVG-20010904/DTD/svg10.dtd">
<svg version="1.0" xmlns="http://www.w3.org/2000/svg"
 width="600.000000pt" height="600.000000pt" viewBox="0 0 600.000000 600.000000"
 preserveAspectRatio="xMidYMid meet">
<metadata>
Created by potrace 1.11, written by Peter Selinger 2001-2013
</metadata>
<g transform="translate(0.000000,600.000000) scale(0.100000,-0.100000)"
fill="#000000" stroke="none">
<path d="M720 5530 c-120 -19 -207 -66 -240 -130 -20 -39 -20 -52 -20 -2395 0
-2186 1 -2359 17 -2392 22 -48 82 -89 167 -116 66 -21 90 -22 351 -22 261 0
285 1 351 22 86 28 145 68 169 119 19 38 19 87 16 1552 -3 1437 -2 1514 15
1510 11 -2 159 -256 426 -733 224 -401 437 -779 472 -840 35 -60 85 -150 112
-198 58 -105 101 -151 174 -186 54 -25 59 -26 265 -26 205 0 211 1 265 26 30
14 73 44 95 66 28 28 139 218 363 619 672 1207 708 1269 725 1272 16 3 17 -85
17 -1513 0 -1403 1 -1519 16 -1552 23 -48 83 -89 168 -116 66 -21 90 -22 351
-22 261 0 285 1 350 22 89 28 140 63 165 113 20 39 20 58 20 2395 0 2337 0
2356 -20 2395 -25 49 -75 84 -160 112 -60 20 -91 22 -374 26 -336 4 -431 -4
-528 -43 -72 -29 -121 -67 -157 -119 -16 -23 -131 -221 -256 -441 -125 -220
-409 -721 -632 -1112 -223 -392 -408 -713 -412 -713 -3 0 -163 280 -356 623
-192 342 -384 683 -426 757 -42 74 -170 302 -284 505 -216 386 -252 437 -335
480 -109 56 -130 58 -485 61 -181 1 -355 -2 -385 -6z"/>
</g>
</svg>
